
<svg width="233px" height="94px" viewBox="0 0 233 94" version="1.1" xmlns="http://www.w3.org/2000/svg" xmlns:xlink="http://www.w3.org/1999/xlink">
    <!-- Generator: Sketch 44.1 (41455) - http://www.bohemiancoding.com/sketch -->
    <desc>Created with Sketch.</desc>
    <defs>
        <polygon id="path-1" points="0 0.176129442 0 32.2536538 32.3098681 32.2536538 32.3098681 0.176129442"></polygon>
    </defs>
    <g id="Page-1" stroke="none" stroke-width="1" fill="none" fill-rule="evenodd">
        <g id="Adyax-Forms-Task" transform="translate(-478.000000, -53.000000)">
            <g id="/logo" transform="translate(478.000000, 53.000000)">
                <path d="M6.56835938,93 L6.43945312,92.6337891 C6.3535152,92.3896472 6.25488337,92.1084 6.14355469,91.7900391 C6.03222601,91.4716781 5.93359418,91.1904309 5.84765625,90.9462891 L5.71875,90.5800781 L2.35546875,90.5800781 L1.50585938,93 L0.3984375,93 L3.515625,84.5449219 L4.55859375,84.5449219 L7.67578125,93 L6.56835938,93 Z M3.99023438,85.9101562 L3.85546875,86.2910156 C3.76562455,86.5449231 3.65527409,86.8593731 3.52441406,87.234375 L3.13183594,88.359375 C3.00097591,88.7343769 2.89062545,89.0488269 2.80078125,89.3027344 L2.66601562,89.6835938 L5.40820312,89.6835938 L4.08398438,85.9101562 L3.99023438,85.9101562 Z M27.0437498,93 L23.7449217,93 L23.7449217,84.5449219 L26.9792967,84.5449219 C27.7566443,84.5449219 28.3679663,84.7343731 28.8132811,85.1132812 C29.2585958,85.4921894 29.4812498,86.0058561 29.4812498,86.6542969 C29.4812498,87.0917991 29.3396497,87.4863264 29.0564451,87.8378906 C28.7732406,88.1894549 28.4285175,88.4023434 28.0222654,88.4765625 L28.0222654,88.5703125 C28.6003933,88.6445316 29.0593731,88.8662091 29.3992186,89.2353516 C29.739064,89.604494 29.9089842,90.0683566 29.9089842,90.6269531 C29.9089842,91.3691443 29.656057,91.9501932 29.1501951,92.3701172 C28.6443332,92.7900412 27.9421918,93 27.0437498,93 Z M24.7996092,85.4765625 L24.7996092,88.1894531 L26.4871092,88.1894531 C27.1277374,88.1894531 27.6091779,88.076173 27.9314451,87.8496094 C28.2537124,87.6230457 28.4148436,87.2851585 28.4148436,86.8359375 C28.4148436,86.4062479 28.2693372,86.0722668 27.9783201,85.8339844 C27.687303,85.5957019 27.2800806,85.4765625 26.7566404,85.4765625 L24.7996092,85.4765625 Z M24.7996092,92.0683594 L26.8855467,92.0683594 C27.5222686,92.0683594 28.0046857,91.9414075 28.3328123,91.6875 C28.6609389,91.4335925 28.8249998,91.0625024 28.8249998,90.5742188 C28.8249998,90.0859351 28.6541031,89.7177747 28.3123045,89.4697266 C27.9705059,89.2216784 27.4617219,89.0976562 26.7859373,89.0976562 L24.7996092,89.0976562 L24.7996092,92.0683594 Z M42.4699216,92.0507812 L38.2863278,92.0507812 L38.2863278,89.1445312 L42.2531247,89.1445312 L42.2531247,88.2070312 L38.2863278,88.2070312 L38.2863278,85.4941406 L42.4699216,85.4941406 L42.4699216,84.5449219 L37.2316403,84.5449219 L37.2316403,93 L42.4699216,93 L42.4699216,92.0507812 Z M53.2320309,93 L53.2320309,85.4941406 L55.9566402,85.4941406 L55.9566402,84.5449219 L49.452734,84.5449219 L49.452734,85.4941406 L52.1773434,85.4941406 L52.1773434,93 L53.2320309,93 Z M66.4374995,93 L66.4374995,85.4941406 L69.1621089,85.4941406 L69.1621089,84.5449219 L62.6582026,84.5449219 L62.6582026,85.4941406 L65.382812,85.4941406 L65.382812,93 L66.4374995,93 Z M81.6292963,92.0507812 L77.4457026,92.0507812 L77.4457026,89.1445312 L81.4124994,89.1445312 L81.4124994,88.2070312 L77.4457026,88.2070312 L77.4457026,85.4941406 L81.6292963,85.4941406 L81.6292963,84.5449219 L76.3910151,84.5449219 L76.3910151,93 L81.6292963,93 L81.6292963,92.0507812 Z M90.19414,85.4824219 L90.19414,88.7167969 L92.2742181,88.7167969 C92.8171895,88.7167969 93.2361307,88.5771498 93.531054,88.2978516 C93.8259774,88.0185533 93.9734368,87.6191432 93.9734368,87.0996094 C93.9734368,86.5917943 93.8191415,86.1953139 93.5105462,85.9101562 C93.2019509,85.6249986 92.7742208,85.4824219 92.2273431,85.4824219 L90.19414,85.4824219 Z M90.19414,89.6542969 L90.19414,93 L89.1394525,93 L89.1394525,84.5449219 L92.3679681,84.5449219 C93.1843784,84.5449219 93.8376922,84.7744118 94.327929,85.2333984 C94.8181658,85.6923851 95.0632806,86.3027306 95.0632806,87.0644531 C95.0632806,87.6542998 94.9128915,88.1640604 94.6121087,88.59375 C94.311326,89.0234396 93.8953145,89.3222648 93.3640618,89.4902344 L95.3210931,93 L94.084765,93 L92.2742181,89.6542969 L90.19414,89.6542969 Z M116.804296,92.0507812 L112.620702,92.0507812 L112.620702,89.1445312 L116.587499,89.1445312 L116.587499,88.2070312 L112.620702,88.2070312 L112.620702,85.4941406 L116.804296,85.4941406 L116.804296,84.5449219 L111.566015,84.5449219 L111.566015,93 L116.804296,93 L116.804296,92.0507812 Z M123.763671,93 L124.958983,93 L127.214843,89.6660156 L127.308593,89.6660156 L129.523437,93 L130.789062,93 L127.923827,88.7929688 L130.853515,84.5449219 L129.652343,84.5449219 L127.390624,87.9082031 L127.296874,87.9082031 L125.070312,84.5449219 L123.798827,84.5449219 L126.658202,88.7460938 L126.365233,89.1767578 C126.16992,89.4638686 125.928711,89.8183573 125.641601,90.2402344 L124.780272,91.5058594 C124.493162,91.9277365 124.251953,92.2822251 124.05664,92.5693359 L123.763671,93 Z M138.058983,84.5449219 L141.252343,84.5449219 C142.053128,84.5449219 142.704489,84.7998021 143.206444,85.3095703 C143.7084,85.8193385 143.959374,86.4765585 143.959374,87.28125 C143.959374,88.0703164 143.704494,88.7177709 143.194726,89.2236328 C142.684957,89.7294947 142.033597,89.9824219 141.240624,89.9824219 L139.113671,89.9824219 L139.113671,93 L138.058983,93 L138.058983,84.5449219 Z M139.113671,85.4824219 L139.113671,89.0449219 L140.976952,89.0449219 C141.578518,89.0449219 142.04531,88.8906265 142.377343,88.5820312 C142.709376,88.273436 142.87539,87.8398465 142.87539,87.28125 C142.87539,86.6992158 142.712305,86.2539078 142.386132,85.9453125 C142.059958,85.6367172 141.590236,85.4824219 140.976952,85.4824219 L139.113671,85.4824219 Z M156.520311,92.0507812 L152.336718,92.0507812 L152.336718,89.1445312 L156.303514,89.1445312 L156.303514,88.2070312 L152.336718,88.2070312 L152.336718,85.4941406 L156.520311,85.4941406 L156.520311,84.5449219 L151.28203,84.5449219 L151.28203,93 L156.520311,93 L156.520311,92.0507812 Z M165.085155,85.4824219 L165.085155,88.7167969 L167.165233,88.7167969 C167.708205,88.7167969 168.127146,88.5771498 168.422069,88.2978516 C168.716992,88.0185533 168.864452,87.6191432 168.864452,87.0996094 C168.864452,86.5917943 168.710157,86.1953139 168.401561,85.9101562 C168.092966,85.6249986 167.665236,85.4824219 167.118358,85.4824219 L165.085155,85.4824219 Z M165.085155,89.6542969 L165.085155,93 L164.030468,93 L164.030468,84.5449219 L167.258983,84.5449219 C168.075393,84.5449219 168.728707,84.7744118 169.218944,85.2333984 C169.709181,85.6923851 169.954296,86.3027306 169.954296,87.0644531 C169.954296,87.6542998 169.803907,88.1640604 169.503124,88.59375 C169.202341,89.0234396 168.78633,89.3222648 168.255077,89.4902344 L170.212108,93 L168.97578,93 L167.165233,89.6542969 L165.085155,89.6542969 Z M178.524999,93 L178.524999,84.5449219 L177.470311,84.5449219 L177.470311,93 L178.524999,93 Z M191.51953,92.0507812 L187.335936,92.0507812 L187.335936,89.1445312 L191.302733,89.1445312 L191.302733,88.2070312 L187.335936,88.2070312 L187.335936,85.4941406 L191.51953,85.4941406 L191.51953,84.5449219 L186.281249,84.5449219 L186.281249,93 L191.51953,93 L191.51953,92.0507812 Z M200.072655,93 L200.072655,86.4433594 L200.166405,86.4433594 L204.754295,93 L205.779686,93 L205.779686,84.5449219 L204.736717,84.5449219 L204.736717,91.125 L204.642967,91.125 L200.055077,84.5449219 L199.029686,84.5449219 L199.029686,93 L200.072655,93 Z M216.940233,93.1992188 C217.838675,93.1992188 218.597456,92.9677758 219.2166,92.5048828 C219.835744,92.0419899 220.215623,91.4218789 220.356248,90.6445312 L219.283983,90.6445312 C219.15117,91.1328149 218.874805,91.5185533 218.454881,91.8017578 C218.034957,92.0849624 217.530079,92.2265625 216.940233,92.2265625 C216.127729,92.2265625 215.483204,91.9160187 215.006639,91.2949219 C214.530074,90.673825 214.291795,89.8339897 214.291795,88.7753906 C214.291795,87.7128853 214.529098,86.8710969 215.003709,86.25 C215.478321,85.6289031 216.121869,85.3183594 216.934373,85.3183594 C217.516408,85.3183594 218.018356,85.4775375 218.440233,85.7958984 C218.86211,86.1142594 219.143357,86.5468723 219.283983,87.09375 L220.356248,87.09375 C220.231248,86.2773397 219.852345,85.6152369 219.21953,85.1074219 C218.586714,84.5996068 217.825003,84.3457031 216.934373,84.3457031 C215.78593,84.3457031 214.877736,84.7421835 214.209764,85.5351562 C213.541792,86.328129 213.207811,87.4081963 213.207811,88.7753906 C213.207811,90.1386787 213.542768,91.2167929 214.212694,92.0097656 C214.882619,92.8027383 215.79179,93.1992188 216.940233,93.1992188 Z M232.964061,92.0507812 L228.780467,92.0507812 L228.780467,89.1445312 L232.747264,89.1445312 L232.747264,88.2070312 L228.780467,88.2070312 L228.780467,85.4941406 L232.964061,85.4941406 L232.964061,84.5449219 L227.72578,84.5449219 L227.72578,93 L232.964061,93 L232.964061,92.0507812 Z" id="A-Better-Experience" fill="#191919"></path>
                <g id="Page-1" transform="translate(31.000000, 0.000000)">
                    <polygon id="Fill-1" fill="#FFD92F" points="176.222222 48.4727273 183 48.4727273 183 41.7090909 176.222222 41.7090909"></polygon>
                    <g id="Group-18" transform="translate(0.000000, 0.217564)">
                        <path d="M174.527621,20.0184448 C173.735613,20.0184448 173.106342,19.3904287 173.106342,18.6 C173.106342,17.8092578 173.735613,17.1812417 174.527621,17.1812417 C175.324027,17.1812417 175.948899,17.8092578 175.948899,18.6 C175.948899,19.3904287 175.324027,20.0184448 174.527621,20.0184448 M174.527621,16.9090909 C173.594553,16.9090909 172.833333,17.6687929 172.833333,18.6 C172.833333,19.5308936 173.594553,20.2909091 174.527621,20.2909091 C175.460688,20.2909091 176.222222,19.5308936 176.222222,18.6 C176.222222,17.6687929 175.460688,16.9090909 174.527621,16.9090909" id="Fill-2" fill="#FFFFFF"></path>
                        <path d="M174.611571,18.1997665 C174.73938,18.1997665 174.864145,18.2471514 174.946308,18.3287588 L175.092593,18.2208264 C174.976956,18.1076291 174.791112,18.0363636 174.611571,18.0363636 C174.252272,18.0363636 173.962963,18.2866389 173.962963,18.600094 C173.962963,18.9135492 174.252272,19.1636364 174.611571,19.1636364 C174.791112,19.1636364 174.976956,19.0899265 175.092593,18.9793616 L174.946308,18.8687967 C174.864145,18.9504041 174.73938,18.9977891 174.611571,18.9977891 C174.355736,18.9977891 174.154676,18.8240443 174.154676,18.600094 C174.154676,18.3735113 174.355736,18.1997665 174.611571,18.1997665" id="Fill-4" fill="#FFFFFF"></path>
                        <g id="Group-8" transform="translate(71.166667, 16.909091)" fill="#000000">
                            <polygon id="Fill-6" points="19.5653505 13.5306827 16.4000596 21.9412645 13.4831043 13.3452464 8.82808166 0.173346364 0.0149906551 0.173346364 12.2417084 30.1658464 6.531683 43.4000282 14.8483853 43.4000282 33.5301358 0.173346364 25.1514909 0.173346364"></polygon>
                        </g>
                        <g id="Group-11" transform="translate(0.000000, 16.909091)">
                            <mask id="mask-2" fill="white">
                                <use xlink:href="#path-1"></use>
                            </mask>
                            <g id="Clip-10"></g>
                            <path d="M16.1841658,25.2182261 C11.1600336,25.2182261 7.21749133,21.2310822 7.21749133,16.2147483 C7.21749133,11.1989878 11.1600336,7.21184396 16.1841658,7.21184396 C21.0176622,7.21184396 25.0238441,11.1989878 25.0238441,16.2147483 C25.0238441,21.2310822 21.0176622,25.2182261 16.1841658,25.2182261 M31.038208,0.176416204 L31.0379252,0.176129442 L25.0645734,0.176129442 L25.0645734,2.78423311 C22.5396379,1.13420249 19.4993634,0.176416204 16.1855801,0.176416204 C7.02035008,0.176416204 -8.48527652e-05,7.2755052 -8.48527652e-05,16.2147483 C-8.48527652e-05,25.1545648 7.02035008,32.2536538 16.1855801,32.2536538 C19.4993634,32.2536538 22.5396379,31.2958676 25.0645734,29.6455502 L25.0645734,32.2536538 L31.0373595,32.2536538 L31.0410365,32.2504995 C31.0410365,32.2504995 32.2784726,32.2791757 32.3098681,31.0082449 L32.3098681,1.46541301 C32.3098681,0.14429882 31.038208,0.176416204 31.038208,0.176416204" id="Fill-9" fill="#000000" mask="url(#mask-2)"></path>
                        </g>
                        <path d="M120.335237,41.5500084 C115.241238,41.5500084 111.243871,37.6267394 111.243871,32.690768 C111.243871,27.755361 115.241238,23.8320919 120.335237,23.8320919 C125.235948,23.8320919 129.298128,27.755361 129.298128,32.690768 C129.298128,37.6267394 125.235948,41.5500084 120.335237,41.5500084 M135.395841,16.9093731 L135.395554,16.9090909 L129.339136,16.9090909 L129.339136,19.4754123 C126.779376,17.8518154 123.696536,16.9093731 120.336671,16.9093731 C111.043988,16.9093731 103.925926,23.8947333 103.925926,32.690768 C103.925926,41.487367 111.043988,48.4727273 120.336671,48.4727273 C123.696536,48.4727273 126.779376,47.5302849 129.339136,45.9064059 L129.339136,48.4727273 L135.394981,48.4727273 L135.398709,48.4696234 C135.398709,48.4696234 136.653353,48.4978403 136.685185,47.24727 L136.685185,18.1777199 C136.685185,16.8777702 135.395841,16.9093731 135.395841,16.9093731" id="Fill-12" fill="#000000"></path>
                        <path d="M51.4278294,41.5125088 C46.333831,41.5125088 42.3364632,37.5679878 42.3364632,32.6052788 C42.3364632,27.6431372 46.333831,23.6986163 51.4278294,23.6986163 C56.328541,23.6986163 60.3907201,27.6431372 60.3907201,32.6052788 C60.3907201,37.5679878 56.328541,41.5125088 51.4278294,41.5125088 M60.431729,0 L60.431729,19.3183369 C57.8719683,17.6859452 54.7891285,16.7383978 51.4292633,16.7383978 C42.1365805,16.7383978 35.0185185,23.761597 35.0185185,32.6052788 C35.0185185,41.4495281 42.1365805,48.4727273 51.4292633,48.4727273 C54.7891285,48.4727273 57.8719683,47.5251798 60.431729,45.8925044 L60.431729,48.4727273 L66.4875735,48.4727273 L66.4913016,48.4696066 C66.4913016,48.4696066 67.7459457,48.4979763 67.7777778,47.2406319 L67.7777778,5.34541602 C67.7777778,2.31950544 60.431729,0 60.431729,0" id="Fill-14" fill="#000000"></path>
                        <polygon id="Fill-16" fill="#000000" points="156.453418 27.3251473 149.526353 16.9090909 140.074074 16.9090909 140.074074 17.0987098 151.209448 32.6909091 140.074074 48.2831084 140.074074 48.4727273 149.526353 48.4727273 156.453704 38.0566708 163.380769 48.4727273 172.833333 48.4727273 172.833333 48.2831084 161.69796 32.6909091 172.833333 17.0987098 172.833333 16.9090909 163.380769 16.9090909"></polygon>
                    </g>
                </g>
            </g>
        </g>
    </g>
</svg>
